# xmcd
#
# Track frame offsets:
# 182
# 17410
# 31200
# 46880
# 59592
# 74045
# 87992
# 104027
# 121277
# 132527
# 152937
# 166490
# 177365
# 192315
#
# Disc length: 2790 seconds
#
#
# Revision: 0
# Processed by: cddbd v1.5.2PL0 Copyright (c) Steve Scherf et al.
# Submitted via: FreeRIP 2.951 
#
DISCID=cc0ae40e
DTITLE=clara nunes - o canto da guerreira
DYEAR=1995
DGENRE=mpb
TTITLE0=conto de areia
TTITLE1=ê baiana
TTITLE2=ilu ayê
TTITLE3=quando vim de minas
TTITLE4=tristeza pé no chão
TTITLE5=o mar serenou
TTITLE6=você passa eu acho graça
TTITLE7=ijexá
TTITLE8=a deusa dos orixás
TTITLE9=canto das três raças
TTITLE10=coração leviano
TTITLE11=guerreira
TTITLE12=feira de mangaio
TTITLE13=portela na avenida
EXTD=
EXTT0=
EXTT1=
EXTT2=
EXTT3=
EXTT4=
EXTT5=
EXTT6=
EXTT7=
EXTT8=
EXTT9=
EXTT10=
EXTT11=
EXTT12=
EXTT13=
PLAYORDER=
